<svg width="320" height="275" viewBox="0 0 320 275" fill="none" xmlns="http://www.w3.org/2000/svg">
<path fill-rule="evenodd" clip-rule="evenodd" d="M215.127 273.808C245.784 272.973 279.754 275.167 301.21 253.322C322.548 231.596 320.304 197.894 319.541 167.498C318.803 138.168 315.789 108.45 297.003 85.8677C276.44 61.148 247.263 39.7663 215.127 41.9816C184.084 44.1217 166.204 74.8521 143.843 96.4266C120.831 118.629 88.886 135.803 85.0384 167.498C80.9165 201.451 97.6804 236.46 124.211 258.141C148.937 278.348 183.168 274.678 215.127 273.808Z" fill="#1F3847"/>
<path d="M113.177 51.6285C93.2386 51.1392 91.7049 71.3238 107.963 120.562C113.177 136.404 108.76 145.823 97.2264 143.377C89.6804 141.786 82.7478 129.737 76.2448 106.861C70.662 87.1051 64.6497 81.5996 54.8951 87.1045C44.7724 92.8541 43.9135 104.415 51.889 129.065C53.1159 132.796 54.6495 137.627 55.3243 139.829C65.4472 172.063 94.1589 195.307 125.079 196.346C140.11 196.835 124.282 199.955 109.435 197.631C81.7049 193.227 54.527 167.171 45.1405 135.793C32.9319 94.8731 36.6129 82.1507 60.7233 82.0895C74.1589 82.0284 75.5699 83.6181 84.8337 109.674C95.8153 140.501 103.852 150.105 102.441 130.654C102.073 126.006 87.1037 87.5327 87.1037 71.8131C87.1037 54.014 101.03 42.7595 117.103 47.5916C123.852 49.6712 121.705 51.8732 113.177 51.6285Z" fill="#DDF0A7"/>
<path d="M189.864 170.29C175.938 186.315 147.472 200.629 137.411 196.652C133.239 195.001 133.913 193.043 138.698 193.043C148.024 193.043 165.815 183.685 176.306 173.287C204.833 144.968 206.306 93.4051 179.68 59.7641C174.404 53.097 161.092 48.0203 156.981 63.3117C154.159 73.9545 156.92 82.7623 162.073 94.9342C171.153 116.22 170.232 125.762 158.944 125.762C150.355 125.762 147.533 121.848 137.411 95.7905C129.251 74.8108 123.238 60.3757 121.582 57.868C117.779 52.1796 124.588 52.3013 128.882 58.0509C131.521 61.5985 138.147 75.4836 140.048 81.4167C144.22 94.3226 147.963 108.88 154.895 118.055C158.453 122.826 161.275 123.009 160.416 116.403C159.865 112.366 157.717 106.434 153.545 97.075C140.662 68.3884 144.465 50.0388 163.606 48.8155C178.392 47.898 188.269 54.565 196.429 72.8535C213.852 111.999 208.882 148.392 189.864 170.29Z" fill="#DDF0A7"/>
</svg>
